<?xml version="1.0" ?><svg id="Layer_1" style="enable-background:new 0 0 128 128;" version="1.1" viewBox="0 0 128 128" xml:space="preserve" xmlns="http://www.w3.org/2000/svg" xmlns:xlink="http://www.w3.org/1999/xlink"><style type="text/css">
	.st0{fill:#191919;}
	.st1{fill:#5F5F5F;}
	.st2{fill:#D7E7F1;}
	.st3{fill:#DB2626;}
	.st4{fill:#FFFFFF;}
	.st5{fill:#BF1313;}
	.st6{fill:#330C03;}
	.st7{fill:#C64309;}
	.st8{fill:#912200;}
	.st9{fill:#1D1D26;}
	.st10{fill:#FD01FD;}
	.st11{fill:#9900CC;}
	.st12{fill:#9494F5;}
	.st13{fill:#E25F3B;}
	.st14{fill:#CC4627;}
	.st15{fill:#69D240;}
	.st16{fill:#565656;}
	.st17{fill:#F2D313;}
	.st18{fill:#D7E6F0;}
	.st19{fill:#666666;}
	.st20{fill:#7B7B7B;}
	.st21{fill:#262C3A;}
	.st22{fill:#A46637;}
	.st23{fill:#7F340A;}
	.st24{fill:#62C60A;}
	.st25{fill:#54A307;}
	.st26{fill:#E01931;}
</style><g><g><path class="st0" d="M4.9,82.3c-0.4,0-0.8-0.2-0.9-0.6c-0.2-0.5,0.1-1.1,0.6-1.3l13.6-5.3l7.1-10.6c0.2-0.2,0.4-0.4,0.7-0.4    l11.3-1.5c0.5-0.1,1,0.3,1.1,0.9s-0.3,1-0.9,1.1L26.6,66l-7,10.5c-0.1,0.2-0.3,0.3-0.5,0.4L5.3,82.2C5.2,82.3,5,82.3,4.9,82.3z"/></g><g><path class="st0" d="M7,114.6c-0.4,0-0.7-0.2-0.9-0.6c-0.2-0.5,0-1.1,0.5-1.3l15-7.1L22,86.3c0-0.4,0.2-0.7,0.6-0.9l14.4-6.8    c0.5-0.2,1.1,0,1.3,0.5c0.2,0.5,0,1.1-0.5,1.3L24,87l-0.4,19.3c0,0.4-0.2,0.7-0.6,0.9l-15.6,7.4C7.3,114.6,7.1,114.6,7,114.6z"/></g><g><path class="st0" d="M37.5,55.4c-0.2,0-0.5-0.1-0.7-0.2l-10.6-9.1c-0.2-0.2-0.3-0.4-0.3-0.6l-1.6-8.8L14.5,31    c-0.5-0.3-0.6-0.9-0.4-1.4c0.3-0.5,0.9-0.6,1.4-0.4l10.3,6c0.3,0.1,0.4,0.4,0.5,0.7l1.6,8.9l10.3,8.8c0.4,0.4,0.5,1,0.1,1.4    C38,55.3,37.8,55.4,37.5,55.4z"/></g></g><g><g><path class="st0" d="M123.1,82.3c-0.1,0-0.2,0-0.4-0.1l-13.9-5.4c-0.2-0.1-0.4-0.2-0.5-0.4l-7-10.5l-10.9-1.4    c-0.5-0.1-0.9-0.6-0.9-1.1c0.1-0.5,0.6-0.9,1.1-0.9l11.3,1.5c0.3,0,0.5,0.2,0.7,0.4l7.1,10.6l13.6,5.3c0.5,0.2,0.8,0.8,0.6,1.3    C123.9,82,123.5,82.3,123.1,82.3z"/></g><g><path class="st0" d="M121,114.6c-0.1,0-0.3,0-0.4-0.1l-15.6-7.4c-0.3-0.2-0.6-0.5-0.6-0.9L104,87l-13.8-6.5    c-0.5-0.2-0.7-0.8-0.5-1.3c0.2-0.5,0.8-0.7,1.3-0.5l14.4,6.8c0.3,0.2,0.6,0.5,0.6,0.9l0.4,19.3l15,7.1c0.5,0.2,0.7,0.8,0.5,1.3    C121.8,114.4,121.4,114.6,121,114.6z"/></g><g><path class="st0" d="M91,52.1c-0.3,0-0.7-0.2-0.9-0.5c-0.3-0.5-0.1-1.1,0.4-1.4l9.7-5.6l1.6-8.8c0.1-0.3,0.2-0.5,0.5-0.7l10.3-6    c0.5-0.3,1.1-0.1,1.4,0.4c0.3,0.5,0.1,1.1-0.4,1.4l-9.9,5.7l-1.6,8.8c-0.1,0.3-0.2,0.5-0.5,0.7L91.5,52    C91.4,52.1,91.2,52.1,91,52.1z"/></g></g><g><g><path class="st0" d="M74.1,27.9c-0.3,0-0.5-0.1-0.7-0.3c-0.4-0.4-0.4-1,0-1.4l12.4-12.6c0.4-0.4,1-0.4,1.4,0c0.4,0.4,0.4,1,0,1.4    L74.8,27.6C74.6,27.8,74.3,27.9,74.1,27.9z"/></g><g><path class="st0" d="M54,27.9c-0.3,0-0.5-0.1-0.7-0.3L40.8,15c-0.4-0.4-0.4-1,0-1.4c0.4-0.4,1-0.4,1.4,0l12.4,12.6    c0.4,0.4,0.4,1,0,1.4C54.5,27.8,54.2,27.9,54,27.9z"/></g></g><path class="st21" d="M47.8,39.8c0-9,7.3-16.3,16.3-16.3l0,0c9,0,16.3,7.3,16.3,16.3"/><path class="st22" d="M90.9,43.1v41.1c0,12.1-9.8,21.9-21.9,21.9h-9.5c-12.1,0-21.9-9.8-21.9-21.9V43.1c0,0,7.7-5.1,26.5-5.1  S90.9,43.1,90.9,43.1z"/><path class="st23" d="M65,38v59c0,3.8,0.5,8,5.9,8c0.6,0,1,0.4,1,1l-5,0.2c-1.4-0.7-2.3-1.8-2.9-3c-0.3,0.8-0.7,1.5-1.3,2.1  c-0.3,0.3-0.7,0.6-1.1,0.9l-4.3-0.1c0-0.6,0.4-1,1-1c1.2,0,2.2-0.4,2.9-1.2c1.5-1.6,1.7-4.4,1.6-5.4c0-0.2,0-0.3,0.1-0.5  c0-0.4,0-0.8,0-1.1V38H65z"/></svg>