<?xml version="1.0" standalone="no"?>
<!DOCTYPE svg PUBLIC "-//W3C//DTD SVG 20010904//EN"
 "http://www.w3.org/TR/2001/REC-SVG-20010904/DTD/svg10.dtd">
<svg version="1.0" xmlns="http://www.w3.org/2000/svg"
 width="791.000000pt" height="1280.000000pt" viewBox="0 0 791.000000 1280.000000"
 preserveAspectRatio="xMidYMid meet">
<metadata>
Created by potrace 1.15, written by Peter Selinger 2001-2017
</metadata>
<g transform="translate(0.000000,1280.000000) scale(0.100000,-0.100000)"
fill="#000000" stroke="none">
<path d="M3710 12794 c-326 -29 -427 -42 -620 -85 -487 -106 -918 -284 -1318
-542 -235 -153 -429 -312 -647 -531 -383 -385 -681 -842 -870 -1330 -262 -679
-325 -1484 -169 -2183 72 -323 226 -723 396 -1029 31 -54 133 -238 228 -409
268 -482 355 -623 900 -1460 585 -898 813 -1273 1101 -1812 579 -1080 990
-2180 1225 -3277 15 -71 29 -125 31 -120 1 5 23 102 47 215 286 1316 772 2497
1594 3874 190 317 354 576 764 1206 633 971 710 1102 1037 1757 259 521 308
641 384 937 82 319 112 563 111 920 -1 339 -23 553 -89 850 -201 911 -776
1761 -1560 2310 -529 370 -1185 612 -1875 690 -128 15 -574 27 -670 19z"/>
</g>
</svg>
