<?xml version="1.0" encoding="utf-8"?>
<!-- Generator: Adobe Illustrator 24.3.0, SVG Export Plug-In . SVG Version: 6.00 Build 0)  -->
<svg version="1.1" id="Слой_1" xmlns="http://www.w3.org/2000/svg" xmlns:xlink="http://www.w3.org/1999/xlink" x="0px" y="0px"
	 viewBox="0 0 660 300" style="enable-background:new 0 0 660 300;" xml:space="preserve">
<style type="text/css">
	.st0{fill:#CC3917;}
	.st1{font-family:'GOSTTypeA';}
	.st2{font-size:101.631px;}
</style>
<path class="st0" d="M190.4,57.5c-0.8,2-2.2,3.9-3,4.2c-0.9,0.3-10.7-1-21.8-3c-11.1-2.1-21.5-3.7-23.1-3.7c-4.5,0-8.6,3.1-12.4,9.4
	c-4.6,7.7-4.1,12.4,2.8,27l5.2,10.8l5-0.6c2.7-0.4,4.9-0.5,4.9-0.2s-2.7,2.5-6,5.1c-4.3,3.3-6.2,5.5-6.9,8.1c-0.6,2-1.8,4.2-2.8,4.9
	c-1.3,1-1.5,1.7-0.7,2.5c1.2,1.2,0,7.2-1.9,9.7c-0.5,0.7-1,3.4-1.2,6c-0.2,2.9-0.9,5.1-1.9,5.9c-1,0.7-1.4,1.8-1,2.8
	c0.9,2.3-1.6,10.7-3.3,11.3c-0.9,0.4-1.3,1.4-0.9,2.6c0.6,2.2-3.1,12.7-4.5,12.7c-0.5,0-0.9,0.9-0.9,2c0,2.7-5.4,13.2-13.4,26
	c-7.1,11.3-8.4,15.2-6.7,20.1c0.6,1.7,0.9,4.1,0.6,5.3c-0.3,1.4,0.5,3.3,2.3,5.5c2.4,2.8,3.7,3.4,8,3.9c7.9,0.7,11.4-0.4,21-6.7
	c14.8-9.7,32.3-25.1,63.1-55.6c41-40.5,58.1-59.6,63.7-71.1c3.5-7.2,2.7-12.1-2.3-14.3c-2.1-0.9-3.3-2.2-3.3-3.4
	c0-1.6-0.5-1.9-3-1.3c-2.6,0.5-3.2,0.2-4.2-2c-1.1-2.3-1.6-2.5-4.9-2c-2.9,0.5-4,0.2-5.5-1.5c-6.3-7-22.1-17.1-34.2-21.8l-5.3-2.1
	L190.4,57.5z M165.3,61.7c19.1,3.4,21.1,3.6,23.5,2.2c1.5-0.8,3.1-2.5,3.7-3.7c0.5-1.2,1.4-2.2,2-2.2c3.5,0,22.1,10.6,27.8,15.9
	l2.7,2.5l-5.8,1.2c-3.2,0.7-8.5,2.3-11.7,3.5c-5.2,2.1-6,2.8-6.8,5.9c-6.1,23.1-19.1,48.3-42,81c-5.6,8-13.2,19.1-16.9,24.7
	l-6.8,10.2l-15.1,10c-8.5,5.7-16.1,10.1-17.4,10.1c-2.6,0-4.5-2.5-4.5-6c0-7.8,14.2-21.2,28-26.6c2.5-0.9,4.8-2,5.2-2.3
	c0.3-0.3,4.7-15.8,9.7-34.5c5-18.6,10-35.3,11.1-37.2c1.2-1.8,8.5-9.2,16.3-16.5C181.6,87.5,184.6,84,182.1,84
	c-0.6,0-6.8,1.1-13.8,2.4c-17.6,3.3-18.5,3.5-20,2.9c-0.7-0.3-4.3-4.4-8-9.2c-3.6-4.7-7.3-9.1-8.1-9.8c-1.2-1-1.1-1.8,1.2-5.7
	c2.9-5,4.9-6.5,8.6-6.6C143.4,58,153.9,59.6,165.3,61.7z M138.5,82.9c8.3,10.6,8.1,10.6,21.1,8.2c6.1-1.1,12.4-2.3,14-2.6
	c2.3-0.6,0.4,1.7-10.1,11.8c-9.5,9.1-13.6,13.7-15.2,17.3c-1.8,4-8.4,27.6-17.7,63.4c-1.1,4.2-1.6,4.7-8.2,8
	c-3.9,1.9-8.1,4.3-9.4,5.2c-1.3,1-2.6,1.6-2.8,1.3c-0.3-0.3,5.1-10.7,6.5-12.4c0.2-0.3,1,0.4,1.7,1.5c2.1,2.7,2.9,1.2,1.7-3.1
	c-0.8-3-0.6-4.7,1.1-9.4c2.7-7.4,3.3-7.9,6.1-5.3c3.3,3.2,4.2,1.5,1.2-2.4s-2.9-3.2-0.9-10.1c1.5-5.3,1.7-5.5,4.5-4.9
	c2.2,0.4,2.9,0.2,2.9-0.9c0-0.8-0.9-1.5-1.9-1.5c-2.9,0-3.2-1.1-1.8-6.6c1.2-4.9,1.4-5.1,8.5-7c2.6-0.7-0.1-2.6-2.9-2
	c-2.5,0.5-2.9,0.3-2.8-1.7c0-1.2,0.5-3.7,1.2-5.6c1-2.8,2-3.7,5.2-4.5c2.5-0.8,4.1-1.8,4.3-3c0.3-1.4,0-1.7-1.3-1.2
	c-0.9,0.3-2.9,0.9-4.3,1.3c-2.6,0.6-2.6,0.6-1.1-1.8c0.9-1.3,5-5.1,9-8.5c4.1-3.3,7.4-6.7,7.4-7.5c0-1.6-3.5-1.8-10.2-0.5l-4.2,0.8
	l-3.6-7.1c-5.2-10.4-7.5-16.8-6.8-18.8c0.6-1.4,0.8-1.4,2.2,0.7C132.8,75.3,135.8,79.3,138.5,82.9z M230,80.5
	c0,0.4-12.7,6.5-13.6,6.5c-0.2,0-3.4,1.8-7,4s-6.8,4-7,4c-0.7,0-0.4-2.3,0.6-6.2c1-3.4,1.6-3.8,7.3-5.7c3.4-1.1,7.1-2.2,8.2-2.4
	C221.3,80.1,230,79.9,230,80.5z M239.9,83.4c1,1.2,0.6,1.8-2.1,3.2c-9,4.7-28.1,22-46.1,41.9c-5,5.5-9.5,10.2-10,10.4s0.2-1.6,1.7-4
	c3.8-6.1,10.8-20.3,13.6-27.2c2.7-6.8,7-10.9,17.2-16.2c6.7-3.6,21.1-9.4,23.4-9.5C238.2,82,239.3,82.6,239.9,83.4z M248.5,90
	c2.2,0,1.9,1.6-1.5,6.5c-12,17.4-46.3,54.8-67.5,73.4c-15.2,13.4-34.8,28.1-36,26.9c-0.3-0.2,2.6-5,6.4-10.6
	c29.8-43.8,72-89.4,90.6-97.7c4.8-2.2,5-2.2,5.7-0.4C246.6,89.2,247.6,90,248.5,90z M253.7,96.7c-0.8,4.6-7.3,14.4-17.3,25.8
	c-12.3,14-62.4,64.4-77.5,77.9c-15.9,14.2-28.6,24.2-29.6,23.2c-0.4-0.4,1.4-4.9,4-9.9l4.7-9.2l12.3-8.2
	c17.6-11.8,27.1-19.6,45.6-37.8c21.9-21.4,46.1-49,53.9-61.2C253.1,92,254.5,91.8,253.7,96.7z M130,210.8c0,0.5-1.1,3.7-2.5,7.2
	c-1.4,3.5-2.5,7.2-2.5,8.1c0,2.2-11.3,8-15.9,8.1c-6.6,0.2-12-7.3-5.7-8c1.5-0.2,7.8-3.9,14-8.2C128.5,210.1,130,209.3,130,210.8z"
	/>
<text transform="matrix(1.0178 0 0 1 224.9999 222.9999)" class="st0 st1 st2">Codex</text>
</svg>
