<?xml version="1.0" encoding="utf-8"?>
<!-- Generator: Adobe Illustrator 24.3.0, SVG Export Plug-In . SVG Version: 6.00 Build 0)  -->
<svg version="1.1" id="Слой_1" xmlns="http://www.w3.org/2000/svg" xmlns:xlink="http://www.w3.org/1999/xlink" x="0px" y="0px"
	 viewBox="0 0 400 400" style="enable-background:new 0 0 400 400;" xml:space="preserve">
<style type="text/css">
	.st0{fill:#C3F291;}
	.st1{fill:#4C4C4C;}
	.st2{font-family:'TrebuchetMS-Bold';}
	.st3{font-size:93.7399px;}
	.st4{font-size:153.0278px;}
	.st5{fill:none;stroke:#000000;stroke-width:4;stroke-miterlimit:10;}
</style>
<g>
	<g>
		<path class="st0" d="M335.6,76.6l-3.8,81.7c-0.6,13-11.6,22.9-24.5,22.4l-49.5-2.3L212.7,210c-2.5,1.7-5.8-0.1-5.7-3.2l1.4-30.7
			l-26.9-1.2c-13-0.6-22.9-11.6-22.4-24.5l3.8-81.7c0.6-13,11.6-22.9,24.5-22.4L313.2,52C326.2,52.6,336.2,63.6,335.6,76.6z"/>
	</g>
	<text transform="matrix(0.9989 4.602674e-02 -4.602674e-02 0.9989 218.0067 142.9643)" class="st1 st2 st3">$</text>
</g>
<text transform="matrix(0.8788 0 0 1 34.8188 313.9199)" class="st1 st2 st4">Fiens</text>
<line class="st5" x1="23" y1="360.8" x2="397" y2="323.2"/>
</svg>
