<?xml version="1.0" encoding="utf-8"?>
<!-- Generator: Adobe Illustrator 22.1.0, SVG Export Plug-In . SVG Version: 6.00 Build 0)  -->
<svg version="1.1" id="Layer_1" xmlns="http://www.w3.org/2000/svg" xmlns:xlink="http://www.w3.org/1999/xlink" x="0px" y="0px"
	 viewBox="0 0 792 612" style="enable-background:new 0 0 792 612;" xml:space="preserve">
<g>
	<path d="M348.4,289.6C348.4,289.6,348.4,289.5,348.4,289.6c-3,0.6-6.1,0.9-8.9-0.2c-1-0.4-1.9-0.9-2.5-1.7c-0.6-0.8-0.8-2-0.3-2.9
		c3.3,2.5,7.7,3.3,11.7,2.4c0-1-0.1-2.1-0.1-3.1c-1.9,1.1-4.2,1.3-6.3,0.6c-2.1-0.7-3.8-2.3-4.7-4.2c-0.2-0.4-0.3-0.9,0-1.2
		c0.4-0.4,1.1-0.1,1.6,0.2c2.2,1.4,4.5,2.8,7.1,2.8c1.3,0,2.8-0.6,3-1.8c0.1-0.8-0.4-1.6-1.2-1.8c-0.6-0.1-1.1,0-1.7,0.1
		c-2.8,0.4-5.8-0.9-7.4-3.3c-0.2-0.4-0.4-0.8-0.2-1.2c0.4-0.6,1.2-0.1,1.8,0.4c1.8,1.4,4.3,1.8,6.4,0.9c0.3-0.1,0.5-0.2,0.7-0.5
		c0.5-0.6,0.2-1.5,0.3-2.2c0-0.9,0.5-1.8,1.3-2.2c0.8-0.5,1.8-0.5,2.6-0.2c0.5,0.2,1,0.6,1.5,0.6c0.6,0,1-0.6,1.6-0.9
		c0.7-0.3,1.7,0,2.2,0.6s0.9,1.4,1,2.2c0.1,0.4,0.1,0.9,0.4,1.2c0.2,0.3,0.6,0.4,0.9,0.4c2.2,0.4,4.1-1.8,6.3-2c0.2,0,0.4,0,0.6,0.1
		c0.3,0.2,0.2,0.7,0,1c-1.2,2.7-4.5,4.2-7.5,3.8c-0.3,0-0.7,0-0.8,0.2c-0.1,0.1,0,0.3,0,0.4c0.1,1.2,0.3,2.4,0.4,3.6
		c2.5,0.3,5.2-0.5,7.1-2.2c0.8-0.7,2.2-2.8,3.6-2.1c-0.1,2.3-1.8,4.2-3.9,5.2c-2,1-4.4,1.2-6.6,1.4c-0.2,0.5-0.3,1.1-0.3,1.6
		c0,0.2,0,0.4,0.1,0.5c0.2,0.2,0.4,0.2,0.7,0.2c2.2,0,4.4,0,6.4-0.9c1.9-0.8,3.5-2.4,5.5-2.8c0.5-0.1,0.1,1.3,0,1.5
		c-0.3,0.5-0.9,1-1.3,1.3c-1,0.9-2.2,1.6-3.5,2c-1.6,0.6-3.3,0.9-5,1c-1.2,0.1-3.1,0.2-3.2,1.9c0,1.8,2.3,1.9,3.6,1.9
		c2.1,0,4.2-0.5,6.1-1.4c1-0.4,1.9-0.9,2.7-1.5c0.4-0.3,2.1-1.5,2.1-0.1c0,0.1-0.1,0.3-0.1,0.4c-1.2,2.5-4.1,3.8-6.9,4.4
		c-2.6,0.6-5.4,0.8-7.9,0c-0.2,1.5,1.3,2.7,2.8,3.1c2.8,0.9,5.9,0.5,8.3-1c1.1-0.7,2.2-1.6,3.4-2c0.2,1.3-0.4,2.6-1.3,3.5
		c-1,0.9-2.2,1.4-3.4,1.8c-1.4,0.5-3,0.8-4.5,0.6c-2.2-0.2-4.2-1.4-6-2.5c0,1.5-0.1,2.9-0.3,4.4c0,0.2-0.1,0.5-0.3,0.6
		c-0.2,0.1-0.4,0.1-0.6,0.1c-1.4,0-2.8,0.1-4.2,0.1c-0.5,0-1,0-1.4-0.2c-1.1-0.7-0.6-2.5-1.3-3.6c-1.8,1.1-3.9,2-6.1,2
		c-1.4,0-2.8-0.3-4.1-1c-1-0.5-2.6-1.7-2.4-3c2.3,0.4,4.6,1.6,7,1.4c1.4-0.2,2.7-0.9,4-1.6c0.5-0.3,1-0.5,1.3-1
		c0.3-0.4,0.5-1,0.3-1.5c-3.4,0.5-6.9,1.1-10.2-0.1c-0.7-0.2-1.4-0.6-1.9-1.1c-0.5-0.6-1.2-2.4-0.5-2.1c7,3.6,11.2,1.2,12,0.7
		C348.9,291.5,349.2,290.2,348.4,289.6z"/>
	<path d="M353.4,250.3c-0.8-0.5-1.5-1.8-2.2,0c-0.6-0.6-1.2-1-1.8-0.1c-0.1,0.1-0.4-0.3-0.5-0.4c-0.7-0.3-1,0.1-1.5,0.4
		c-0.6-0.3-0.6-0.2-1.5,0.4c-0.1-0.5-0.7-2.9-0.9-3.6c-0.3-1.1-0.7-1.4-1.9-1.4c-0.9,0-1.8,0.1-2.7-0.1c-1.9-0.3-2.6-1.7-2.1-3.9
		c0.4-1.8,0.6-3.6,0.4-5.4c-0.3-1.9-0.4-3.7,0.3-5.5c0.7-1.9,1.9-3.4,3.5-4.5c5-3.4,10.4-4.2,16.1-2c2.3,0.9,4.2,2.3,5.7,4.3
		c1.6,2.1,1.6,4.6,1.4,7.1c-0.1,1.8-0.3,3.6,0.4,5.4c0.6,1.3,0.2,2.6-0.7,3.7c-0.8,0.9-1.9,0.7-3,0.6c-2.1-0.3-2.9,0.3-3,2.4
		c0,0.5-0.2,1.2-0.3,1.8c-0.8-0.4-1-0.8-1.7,0.4c-0.8-0.7-1.6-0.6-2,0.1C354.2,249.2,354.2,249.2,353.4,250.3z M357.6,235.7
		c-1.3,0-3,0.3-2.8,1.7c0.3,2.6,2.9,5.9,5.9,5.4c1.1-0.2,1.9-1.2,2.1-2.3c0.2-2.2-2.2-4.3-4.2-4.6
		C358.2,235.7,357.9,235.7,357.6,235.7z M348.6,235.4c-1.9-0.1-4.5,1.2-5.4,2.5c-0.8,1.1-1.1,2.8-0.2,3.9c0.7,0.8,1.6,0.7,2.6,0.6
		c1.8-0.2,4.3-3.2,4.5-5c0.1-0.6,0.3-1.3-0.3-1.6C349.4,235.5,349,235.4,348.6,235.4z M350.3,246.4c0,0.2,0,0.3,0.1,0.5
		c0.1,0.3,0.4,0.5,0.7,0.6c0.6,0.1,1-0.3,1.5-0.5c0.7-0.3,1.1,0.1,1.8,0.1c0.3,0,0.5-0.1,0.7-0.3c0.1-0.1,0.1-0.3,0.1-0.4
		c0-0.6-0.3-1.1-0.6-1.6c-0.4-0.6-0.8-1.2-1.3-1.8c-0.4-0.5-0.9-0.9-1.4-0.3c-0.8,0.9-1.3,2-1.6,3.1
		C350.4,246,350.3,246.2,350.3,246.4z"/>
	<path d="M346.4,303.8c2.1,0.1,4,0.9,5.7,2c1.4,0.9,1.8,0.9,3.2,0c2.2-1.5,4.6-2.6,7.3-2.9c1.5-0.1,2.9,0.2,3.8,1.3
		c0.5,0.5,0.8,1.5,0.8,2.1c-0.1,1.2-0.6,2.3-1.8,3.1c-2.2,1.5-4.3,3.2-6.3,5c-1.1,1-2.3,1.6-3.7,1c-1.1-0.4-2-0.3-3,0.3
		c-0.8,0.5-1.7,0.4-2.5-0.2c-0.9-0.7-1.7-1.5-2.7-2.2c-1.6-1.1-3.2-2-4.8-3.1c-1.8-1.2-2.4-2.5-1.7-4.3c0.6-1.5,2-1.9,3.5-2.1
		C344.9,303.8,345.6,303.8,346.4,303.8z M349,308.5C349,308.5,349,308.5,349,308.5c-0.1,0-0.3,0-0.4,0c-0.7,0.1-1.4,0.1-1.7,0.9
		c-0.2,0.8,0.2,1.3,0.8,1.6c1.3,0.7,2.6,1.4,3.9,1.9c0.7,0.3,1.7,0.7,2.4,0.5c2.2-0.6,4.2-1.6,5.9-3.1c0.5-0.5,1.1-1.1,0.5-1.7
		c-0.4-0.4-1.2-0.7-1.8-0.6c-1.1,0.2-2.3,0.6-3.4,1c-0.8,0.3-1.6,0.5-2.6,0.3C351.5,309,350.3,308.8,349,308.5z"/>
	<path d="M371.7,269.4c-0.2,1.7-1.2,2.4-2.8,1.9c-0.8-0.3-1.6-0.7-2.4-1.2c-3.4-1.9-7-2.8-10.9-2.6c-0.8,0-1.4,1.1-2.1,1.2
		c-1.6,0.3-2.3-0.4-3-0.6c-2.9-0.9-5.1-0.1-7.8,0.6c-2.1,0.6-3.8,1.8-5.6,3c-1.4,0.9-2,0.9-3.1,0c-0.9-0.8-1.2-2.4-0.7-3.4
		c0.5-1.1,1.3-1.8,2.4-2.2c2.6-1.1,5.4-1.4,8.2-1.6c1.6-0.1,3.3-0.1,4.9-0.1c0.8,0,1.2-0.5,1.2-1.3c-0.1-1.2,0.3-1.1,1.2-1.3
		c0.3,0,1.2-0.1,1.5-0.1c1-0.2,0.9,0.6,1,1.3c0.1,0.9,0.6,1.3,1.5,1.2c2.1-0.1,4.3-0.1,6.4-0.2c3.2,0,6.2,0.4,8.8,2.4
		C371.4,267.3,371.9,268.3,371.7,269.4z"/>
	<path d="M383.4,349.1c0.8,0.2,2.2,0.4,3.5,0.7c0.8,0.2,1.2,1,0.9,1.9c-1,3.4-2.1,6.8-2.9,10.3c-1,3.9-1.8,7.9-2.5,11.9
		c-0.2,1.2,0.1,2.4,0.2,3.6c0,0.7,0.2,1.4-0.6,1.8c-0.8,0.4-1.4-0.1-1.9-0.6c-0.4-0.5-0.9-0.5-1.5-0.4c-0.8,0.2-1.9,0.3-2.3-0.6
		c-0.4-0.9-0.3-1.8,0.3-2.8c1.5-2.1,2.2-4.5,2.7-7c0.2-1.2,0.6-2.4,0.8-3.6c0.4-2.1,0.9-4.3,1.1-6.5c0.2-2.4,0.2-4.9,0.3-7.4
		C381.5,349.2,381.6,349.1,383.4,349.1z"/>
	<path d="M349.3,251.3c0.8,0.8,0.9,1,1.9-0.3c0.5,1,1.8,0.9,2.3,0c0.8,1,1.6,0.7,2,0.2c0-0.1,0.4,0.1,0.6,0.1c0.3,0,1.3,0.3,1.8-0.5
		c1.1,0.4,1.1,0.2,1.6-0.4c0.1,0.3,0.6,1,0.7,1c0.3-1.3,0.6-2.6,0.9-3.8c0.1-0.4,0.3-0.8,0.5-1c0.3-0.2,0.9-0.3,1.3-0.2
		c0.2,0,0.4,0.6,0.4,0.9c-0.7,3.6-1.2,7.2-3.2,10.4c-0.9,1.5-2.1,2.2-3.9,2.5c-2.4,0.4-4.7,0.4-7,0.4c-1.8,0-2.7-1.2-3.5-2.5
		c-1-1.6-1.7-3.3-2.5-5c-0.2-0.5-0.2-1.2-0.4-1.8c-0.2-1-0.5-2-0.7-2.9c-0.1-0.5-0.7-1,0.1-1.3c0.8-0.3,1.7-0.1,1.9,0.6
		c0.3,0.8,0.5,1.6,0.6,2.5c0.1,0.8,0.6,1.7,0.9,2.2c0.1,0.2,0.3-0.7,0.8-0.9c0.4,0.5,0.9,0.9,1.7,0
		C348.2,252,348.9,251.9,349.3,251.3z M355.6,254.7c0.7,0,0.6-0.1,0.9-0.8c0.1-0.2,1.2,1,1.8-0.6c0.5,0.3,0.7,0,0.8-0.1
		c0.4-0.5,0.6-0.9,0.1-1.2c-0.1-0.1-0.6-0.2-1.1,0.3c-0.6-0.5-1.4-0.7-1.9,0.2c-0.5-0.3-1.5-0.5-1.9,0.3c-0.3,0.1-0.2-0.2-0.8-0.3
		s-0.8,0.2-1.2,0.6c-0.7-0.3-1-0.5-1.6,0.2c-0.2,0.2-0.3,0-0.4-0.1c-0.5-0.4-0.9-0.5-1.4,0c-0.3-0.8-1.1-0.5-1.4-0.1
		c-0.1,0.2-1-0.5-1.8,0.3c-0.5,0.4,0,1.2,0.6,1.3c0.2,0,1.1,0.1,1.4,0c0.1,0.4,0.5,0.7,1.4,0.3c0.8,0.6,1.3-0.3,1.4-0.3
		c0.7,0.7,1.3,0.6,2.3-0.1c0.6,0.8,1.2,0.7,1.9-0.1C354.7,254.3,354.9,254.6,355.6,254.7z"/>
	<path d="M370.5,315.1c-0.3,2.2-2.4,4.7-1,6.5c2.2,3,4.3,6,6.5,9c1.3,1.7,2.9,3.2,4.4,4.6c0.8,0.7,1.9,1,2.8,1.5
		c0.6,0.4,1.3,0.9,1.6,1.6c0.5,0.8-0.1,1.8-1,2c-0.5,0.1-1.1,0.1-1.6,0.4c-0.7,0.3-1.3,0.8-2,1.2c-0.2,0.1-0.3,0.4-0.4,0.5
		c-0.4,0.3-1,0.8-1.4,0.7c-0.4-0.1-0.9-0.8-1-1.3c-0.3-1.3-0.4-2.7-0.8-4c-0.3-1.1-0.7-2.3-1.3-3.3c-1.3-2.1-2.7-4-4.2-6
		c-1.5-2.1-3.1-4.1-4.7-6.1c-0.4-0.5-1.1-1-1.7-1.4c-1.3-0.8-1.8-1.9-1.8-3.4c0-0.8,0.5-1.2,1.1-1.5c1.3-0.5,2.4-1.2,2.8-2.7
		c0.4-1.3,2.1-1.5,2.9-0.5C370.4,313.6,370.6,314.3,370.5,315.1z"/>
	<path d="M346.4,317.1c0,0.3-0.2,0.7-0.4,1.1c-1.2,1.9-2.7,3.7-3.7,5.7c-1.5,2.9-2.9,5.8-4.3,8.7c-1.2,2.5-1.8,5.1-1.5,7.9
		c0.1,0.7,0.1,1.5,0,2.3c-0.1,0.5-0.4,1.2-0.7,1.3c-0.5,0.2-1.2-0.1-1.7-0.3c-0.5-0.2-0.9-0.8-1.4-0.9c-0.7-0.2-1.5-0.3-2.3-0.3
		c-0.8,0-1.5-0.2-1.8-0.9c-0.4-0.8-0.1-1.5,0.5-2.1c1-0.9,2.1-1.7,3-2.7c1.8-1.8,3-4,4.1-6.2c1.3-2.5,2.5-5,3.7-7.6
		c0.3-0.7,0.7-1.4,0.7-2.1c0-0.8-0.3-1.6-0.7-2.4c-0.7-1.4-1.5-2.6-1.5-4.2c0-1.1,0.2-2,1.3-2.6c0.6-0.3,1.2-0.3,1.4,0.4
		C342.3,316.3,346.6,314.8,346.4,317.1z"/>
	<path d="M333.6,375.4c-0.1-1.3,0.5-2.8,0.3-4.2c-0.2-2.1-0.5-4.2-0.9-6.3c-0.2-1.1-0.5-2.2-0.7-3.3c-0.6-2.7-1.4-5.4-2.6-7.9
		c-1-2.2-0.8-2.5,1.6-2.8c0.5-0.1,1-0.3,1.5-0.5c1.6-0.4,2.3,0.1,2.3,1.7c-0.1,3.3,0.5,6.6,1.2,9.8c0.6,2.7,0.9,5.4,1.5,8.1
		c0.4,1.6,1.2,3.1,1.8,4.7c0.1,0.4,0.3,0.8,0.1,1.2c-0.2,0.3-0.5,0.5-0.9,0.5c-1.2,0.1-1.7,0-2.9,0.4c-0.9,0.4-2-0.3-2.2-1.2
		C333.6,375.6,333.6,375.5,333.6,375.4z"/>
	<path d="M295.5,309.4c-0.2,0.1-0.4,0.2-0.5,0.3c-1.6,0.9-2.5,1.5-3.3,3.2c-0.5,1.1-1,2.1-2.1,2.8c-0.6,0.4-1.2,0.8-1.7,1.3
		c-0.6,0.6-1.1,0.7-1.9,0.2c-1.4-0.8-2.1-1.9-2.8-3.3c-0.7-1.4-0.8-2.6-0.3-3.9c0.2-0.4,0.4-0.9,0.7-1.1c1.3-1,2.7-2.1,4.4-1.9
		c2.2,0.2,3.7-0.8,5-2.2c0.6-0.7,1.1-0.8,1.7,0c0.6,0.9,1.4,1.6,2.2,2.4C297.7,308,296.4,308.9,295.5,309.4z"/>
	<path d="M373.6,269.4c0.8,0,2.8,1.1,2.8,2.2c0.1,3,2.1,4.4,4.1,6c2.2,1.8,4.5,3.5,7.1,4.7c1.1,0.5,2.1,1,3.1,1.7
		c0.9,0.6,0.8,1.6-0.2,2.1c-1.1,0.6-1.9,1.3-2.4,2.5c-0.3,0.7-0.9,0.7-1.4,0.1c-0.5-0.7-0.9-1.4-1.3-2.2c-0.6-1.6-1.8-2.7-3.1-3.6
		c-2.7-2-5.6-3.8-8.2-6c-1.1-0.9-1.8-2.4-2.5-3.8C371.3,272.4,374.1,272.9,373.6,269.4z"/>
	<path d="M408.3,307.7c1-1.3,1.8-2.5,2.7-3.6c0.1-0.2,0.7-0.1,0.9,0c0.7,0.5,1.3,1.2,2.1,1.6c0.7,0.4,1.6,0.6,2.4,0.6
		c1.9-0.2,3.5,0.5,4.9,1.5c1.3,0.9,1.6,3.1,0.9,4.5c-0.5,1-0.6,2.2-1.5,3c-0.4,0.3-0.8,0.7-1.3,1c-0.3,0.1-0.8,0.2-1,0.1
		c-1-0.7-2.1-1.4-3-2.2c-0.6-0.5-1-1.2-1.2-2c-0.6-1.7-1.8-2.6-3.3-3.2C410.1,308.6,409.3,308.2,408.3,307.7z"/>
	<path d="M391.9,286.7c3.4,2.8,6.8,5.5,10.1,8.4c2.2,1.8,4.2,3.8,6.3,5.8c0.5,0.4,0.9,0.8,1.3,1.3c0.2,0.3,0.4,0.9,0.3,1.2
		c-0.5,1.1-1.2,2.1-1.8,3.1c-0.1,0.1-0.6,0.2-0.8,0.1c-2.5-2.1-5-4.2-7.5-6.4c-2.3-2-4.4-4.2-6.7-6.2c-1-0.9-2.1-1.8-3.2-2.6
		c-0.5-0.4-0.7-0.7-0.5-1.4C389.8,288.5,390.9,287.7,391.9,286.7z M405.8,302.3c0.3-2.1-9.5-10.9-12.4-11.2
		C393.3,293,403.1,301.9,405.8,302.3z"/>
	<path d="M325.5,384.3c-1.1-0.4-1.3-0.8-0.8-1.8c0.2-0.4,0.4-0.8,0.4-1.2c0.4-2.1,7.8-3,9.5-2.6c0.6,0.1,1.2,0.5,1.8,0.5
		c1.4,0.1,2.4-1.3,3.7-1.4c1.6-0.1,2.9,2.4,2.1,3.7c-0.3,0.6-1,0.8-1.6,1c-2.3,0.8-4.7,1.1-7,1.8c-2.3,0.7-6.4,1.8-8.8,2
		c-0.2,0-0.7-0.5-0.7-0.8c0-0.3,0.3-0.7,0.5-0.9C324.7,384.4,325.1,384.4,325.5,384.3z"/>
	<path d="M383.4,347.2c-2.7,0-3.3-1.4-2.8-3.1c0.3-1.2,1.4-1.8,2.7-2.1c1.1-0.2,2,0,2.8,0.9c2,2.3,0.7,3.6-1.4,4.2
		C384.2,347.2,383.7,347.2,383.4,347.2z"/>
	<path d="M331.4,349c-2.1-0.1-3.1-0.8-3.5-2.5c-0.1-0.6,0.1-1.5,0.5-2c0.2-0.3,1.1-0.3,1.6-0.2c0.9,0.2,1.9,0.6,2.8,0.9
		c0.9,0.3,1.1,1,1,1.8c-0.1,0.9-0.5,1.6-1.4,1.9C332.1,349,331.7,349,331.4,349z"/>
</g>
<path d="M331.7,269.6c-0.8,0-2.8,1.1-2.8,2.2c-0.1,3-2.1,4.4-4.1,6c-2.2,1.8-4.5,3.5-7.1,4.7c-1.1,0.5-2.1,1-3.1,1.7
	c-0.9,0.6-0.8,1.6,0.2,2.1c1.1,0.6,1.9,1.3,2.4,2.5c0.3,0.7,0.9,0.7,1.4,0.1c0.5-0.7,0.9-1.4,1.3-2.2c0.6-1.6,1.8-2.7,3.1-3.6
	c2.7-2,5.6-3.8,8.2-6c1.1-0.9,1.8-2.4,2.5-3.8C334,272.5,331.2,273,331.7,269.6z"/>
<path d="M316.3,289.9c0.2,0.8,0,1-0.5,1.4c-1.1,0.8-2.2,1.7-3.2,2.6c-2.2,2.1-4.4,4.2-6.7,6.2c-2.4,2.2-5,4.3-7.5,6.4
	c-0.1,0.1-0.7,0-0.8-0.1c-0.7-1-1.3-2-1.8-3.1c-0.1-0.3,0-0.9,0.3-1.2c0.3-0.5,0.8-0.9,1.3-1.3c2.1-1.9,4.1-3.9,6.3-5.8
	c3.3-2.8,6.7-5.6,10.1-8.4C314.8,287.7,315.9,288.5,316.3,289.9z M312.3,291.1c-2.9,0.3-12.7,9.1-12.4,11.2
	C302.6,301.9,312.4,293,312.3,291.1z"/>
<path d="M391.3,386.3c1.1-0.4,1.3-0.8,0.8-1.8c-0.2-0.4-0.4-0.8-0.4-1.2c-0.4-2.1-7.8-3-9.5-2.6c-0.6,0.1-1.2,0.5-1.8,0.5
	c-1.4,0.1-2.4-1.3-3.7-1.4c-1.6-0.1-2.9,2.4-2.1,3.7c0.3,0.6,1,0.8,1.6,1c2.3,0.8,4.7,1.1,7,1.8c2.3,0.7,6.4,1.8,8.8,2
	c0.2,0,0.7-0.5,0.7-0.8c0-0.3-0.3-0.7-0.5-0.9C392.1,386.4,391.7,386.4,391.3,386.3z"/>
</svg>
