<?xml version="1.0" encoding="UTF-8"?>
<!DOCTYPE svg PUBLIC "-//W3C//DTD SVG 1.1//EN" "http://www.w3.org/Graphics/SVG/1.1/DTD/svg11.dtd">
<!-- Creator: CorelDRAW 2020 (64-Bit Оценочная версия) -->
<svg xmlns="http://www.w3.org/2000/svg" xml:space="preserve" width="165px" height="165px" version="1.1" style="shape-rendering:geometricPrecision; text-rendering:geometricPrecision; image-rendering:optimizeQuality; fill-rule:evenodd; clip-rule:evenodd"
viewBox="0 0 165 165"
 xmlns:xlink="http://www.w3.org/1999/xlink"
 xmlns:xodm="http://www.corel.com/coreldraw/odm/2003">
 <defs>
  <style type="text/css">
   <![CDATA[
    .str0 {stroke:#2B2A29;stroke-width:2.36;stroke-miterlimit:22.9256}
    .fil1 {fill:none}
    .fil0 {fill:#D2CDE7}
   ]]>
  </style>
    <clipPath id="id0">
     <path d="M99.15 101.36l115.51 0 -107.49 41.98 -115.52 0 107.5 -41.98z"/>
    </clipPath>
   <clipPath id="id1">
    <path d="M80.78 55.5l-6.08 20.18 32.42 25.76 -22.9 0.96 -16.83 36.1 -8.08 -19.59 -42.81 -3.45 17.91 -13.06 -9.64 -38.23 19.15 11.51 36.86 -20.18z"/>
   </clipPath>
    <clipPath id="id2">
     <path d="M92.8 103.56l123.61 0 -104.93 42.82 -123.61 0 104.93 -42.82z"/>
    </clipPath>
 </defs>
 <g id="Слой_x0020_1">
  <metadata id="CorelCorpID_0Corel-Layer"/>
  <g id="_1501280030080">
   <g style="clip-path:url(#id0)">
    <image x="-8.35" y="101.36" width="223.02" height="41.98" xlink:href="2_Images\2_ImgID1.png"/>
   </g>
  </g>
  <g>
  </g>
  <g style="clip-path:url(#id1)">
   <g>
    <polygon class="fil0" points="-123.63,-84.63 247.25,-84.63 247.25,278.63 -123.63,278.63 "/>
   </g>
  </g>
  <polygon class="fil1" points="80.78,55.5 74.7,75.68 107.12,101.44 84.22,102.4 67.39,138.5 59.31,118.91 16.5,115.46 34.41,102.4 24.77,64.17 43.92,75.68 "/>
  <g>
   <g style="clip-path:url(#id2)">
    <image x="-12.13" y="103.56" width="228.54" height="42.82" xlink:href="2_Images\2_ImgID2.png"/>
   </g>
  </g>
  <polygon class="fil1 str0" points="80.78,55.5 74.7,75.68 107.12,101.44 84.22,102.4 67.39,138.5 59.31,118.91 16.5,115.46 34.41,102.4 24.77,64.17 43.92,75.68 "/>
 </g>
</svg>
